<?xml version="1.0" encoding="UTF-8"?>
<svg id="Layer_2" data-name="Layer 2" xmlns="http://www.w3.org/2000/svg" viewBox="0 0 329.53 44.86">
  <defs>
    <style>
      .cls-1 {
        fill: #a55;
      }
    </style>
  </defs>
  <g id="Layer_1-2" data-name="Layer 1">
    <g>
      <path d="M0,28.54C0,18.56,6.02,12.22,15.49,12.22c8.45,0,13.89,5.12,13.89,13.18h-4.74c-.06-5.25-3.58-8.58-9.09-8.58-6.34,0-10.43,4.54-10.43,11.71s3.97,11.71,10.11,11.71c5.76,0,9.47-3.26,9.54-8.45h4.74c0,7.94-5.63,13.05-14.4,13.05-9.22,0-15.1-6.33-15.1-16.32Z"/>
      <path d="M37.5,12.73h5.12l-.13,9.15h.06c1.47-5.5,4.74-9.66,11.52-9.66s10.88,4.74,10.88,12.35c0,2.18-.19,4.48-.32,5.63h-4.67c.13-.96.26-2.56.26-4.54,0-5.82-2.18-8.83-7.36-8.83-6.46,0-10.24,5.63-10.24,13.5v14.01h-5.12V12.73Z"/>
      <path d="M71.36,28.61c0-9.98,6.21-16.38,16-16.38s16,6.4,16,16.38-6.21,16.25-16,16.25-16-6.33-16-16.25ZM98.24,28.61c0-7.17-4.22-11.78-10.88-11.78s-10.88,4.61-10.88,11.78,4.22,11.65,10.88,11.65,10.88-4.54,10.88-11.65Z"/>
      <path d="M109.31,33.79h4.74c0,4.22,2.56,6.72,9.15,6.72s9.66-1.98,9.66-5.38c0-1.28-.38-2.5-1.98-3.26-1.47-.7-4.8-1.09-8.7-1.47-5.18-.45-8.32-1.09-10.24-2.5-1.73-1.28-2.62-3.58-2.62-5.89,0-5.95,5.44-9.79,13.89-9.79,9.47,0,13.44,4.16,13.44,11.26h-4.74c-.06-4.74-2.88-6.91-8.51-6.91s-8.96,1.98-8.96,5.12c0,1.28.19,2.82,2.05,3.58,1.54.64,4.67,1.02,8.83,1.47,4.93.51,7.36.96,9.54,2.18,2.11,1.22,3.14,3.65,3.14,6.02,0,6.21-5.12,9.92-14.72,9.92-10.62,0-13.95-4.99-13.95-11.07Z"/>
      <path d="M144.38,33.79h4.74c0,4.22,2.56,6.72,9.15,6.72s9.66-1.98,9.66-5.38c0-1.28-.38-2.5-1.98-3.26-1.47-.7-4.8-1.09-8.7-1.47-5.18-.45-8.32-1.09-10.24-2.5-1.73-1.28-2.62-3.58-2.62-5.89,0-5.95,5.44-9.79,13.89-9.79,9.47,0,13.44,4.16,13.44,11.26h-4.74c-.06-4.74-2.88-6.91-8.51-6.91s-8.96,1.98-8.96,5.12c0,1.28.19,2.82,2.05,3.58,1.54.64,4.67,1.02,8.83,1.47,4.93.51,7.36.96,9.54,2.18,2.11,1.22,3.14,3.65,3.14,6.02,0,6.21-5.12,9.92-14.72,9.92-10.62,0-13.95-4.99-13.95-11.07Z"/>
      <path class="cls-1" d="M180.22,28.29c0-9.92,5.7-16.06,14.46-16.06,5.12,0,8.19,1.79,9.54,4.61h.06V0h12.67v44.35h-12.67c.13-1.15.26-3.58.38-6.59h-.13c-1.22,4.03-4.42,7.1-10.24,7.1-8.89,0-14.08-6.33-14.08-16.58ZM204.29,28.86v-1.86c-.06-3.39-2.37-5.76-5.82-5.76s-5.63,2.62-5.63,7.17,2.11,7.42,5.5,7.42,5.95-2.5,5.95-6.98Z"/>
      <path class="cls-1" d="M220.41,28.61c0-9.92,6.34-16.38,18.17-16.38s18.11,6.46,18.11,16.38-6.27,16.25-18.11,16.25-18.17-6.4-18.17-16.25ZM244.03,28.61c0-4.8-1.92-7.36-5.44-7.36s-5.5,2.56-5.5,7.36,1.92,7.23,5.5,7.23,5.44-2.56,5.44-7.23Z"/>
      <path class="cls-1" d="M259.52,28.61c0-10.05,6.59-16.38,17.34-16.38s16.32,5.38,16.32,14.53h-10.88c-.06-3.65-1.86-5.5-4.8-5.5-3.46,0-5.31,2.37-5.31,7.3s1.98,7.3,5.12,7.3,4.99-1.79,5.05-5.38h10.82c0,9.34-5.76,14.4-16.7,14.4s-16.96-6.59-16.96-16.25Z"/>
      <path class="cls-1" d="M295.8,33.73h10.75c.06,2.62,1.28,4.16,5.31,4.16,3.65,0,4.99-1.28,4.99-3.13,0-1.15-.58-1.92-2.24-2.18-1.6-.32-3.78-.51-6.27-.77-4.35-.38-7.55-1.09-9.47-2.3-1.86-1.28-3.07-3.65-3.07-6.34,0-6.85,6.72-10.94,16.51-10.94,11.52,0,15.93,4.16,15.93,11.33h-10.69c0-2.94-1.22-4.35-4.67-4.35-3.26,0-4.61,1.28-4.61,3.07,0,1.28.51,2.24,2.37,2.62,1.6.26,4.03.51,6.85.77,3.46.38,6.27.77,8.51,2.05,2.24,1.28,3.52,3.65,3.52,6.33,0,6.46-4.86,10.82-17.28,10.82s-16.45-4.99-16.45-11.13Z"/>
    </g>
  </g>
</svg>