<?xml version="1.0" encoding="UTF-8"?>
<svg id="Layer_2" data-name="Layer 2" xmlns="http://www.w3.org/2000/svg" viewBox="0 0 213.77 56.75">
  <defs>
    <style>
      .cls-1 {
        fill: #a55;
      }

      .cls-2 {
        fill: #fff;
      }
    </style>
  </defs>
  <g id="Layer_1-2" data-name="Layer 1">
    <g>
      <rect class="cls-1" y=".5" width="56.25" height="56.25"/>
      <g>
        <path class="cls-1" d="M64.46,28.29c0-9.92,5.7-16.06,14.46-16.06,5.12,0,8.19,1.79,9.54,4.61h.06V0h12.67v44.35h-12.67c.13-1.15.26-3.58.38-6.59h-.13c-1.22,4.03-4.42,7.1-10.24,7.1-8.9,0-14.08-6.34-14.08-16.57ZM88.52,28.86v-1.86c-.06-3.39-2.37-5.76-5.82-5.76s-5.63,2.62-5.63,7.17,2.11,7.42,5.5,7.42,5.95-2.5,5.95-6.97Z"/>
        <path class="cls-1" d="M104.65,28.61c0-9.92,6.34-16.38,18.17-16.38s18.11,6.46,18.11,16.38-6.27,16.25-18.11,16.25-18.17-6.4-18.17-16.25ZM128.27,28.61c0-4.8-1.92-7.36-5.44-7.36s-5.5,2.56-5.5,7.36,1.92,7.23,5.5,7.23,5.44-2.56,5.44-7.23Z"/>
        <path class="cls-1" d="M143.76,28.61c0-10.05,6.59-16.38,17.34-16.38s16.32,5.38,16.32,14.53h-10.88c-.06-3.65-1.86-5.5-4.8-5.5-3.46,0-5.31,2.37-5.31,7.3s1.98,7.29,5.12,7.29,4.99-1.79,5.06-5.38h10.81c0,9.34-5.76,14.4-16.7,14.4s-16.96-6.59-16.96-16.25Z"/>
        <path class="cls-1" d="M180.04,33.73h10.75c.06,2.62,1.28,4.16,5.31,4.16,3.65,0,4.99-1.28,4.99-3.14,0-1.15-.58-1.92-2.24-2.18-1.6-.32-3.78-.51-6.27-.77-4.35-.38-7.55-1.09-9.47-2.3-1.86-1.28-3.07-3.65-3.07-6.34,0-6.85,6.72-10.94,16.51-10.94,11.52,0,15.93,4.16,15.93,11.33h-10.69c0-2.94-1.22-4.35-4.67-4.35-3.26,0-4.61,1.28-4.61,3.07,0,1.28.51,2.24,2.37,2.62,1.6.26,4.03.51,6.85.77,3.46.38,6.27.77,8.51,2.05,2.24,1.28,3.52,3.65,3.52,6.34,0,6.46-4.86,10.81-17.28,10.81s-16.45-4.99-16.45-11.13Z"/>
      </g>
      <polygon class="cls-2" points="44.15 36.58 36.15 28.59 44.04 20.69 36.05 12.7 28.15 20.59 20.17 12.61 12.18 20.6 20.16 28.59 12.07 36.67 20.07 44.66 28.15 36.58 36.15 44.58 44.15 36.58"/>
    </g>
  </g>
</svg>